<mxfile host="Electron" modified="2023-11-13T15:46:25.620Z" agent="Mozilla/5.0 (Windows NT 10.0; Win64; x64) AppleWebKit/537.36 (KHTML, like Gecko) draw.io/22.0.3 Chrome/114.0.5735.289 Electron/25.8.4 Safari/537.36" etag="0oroO5XkBCAbr3FMRpv5" version="22.0.3" type="device">
  <diagram id="KHMHb_HekOx8Wtz281Yh" name="第 1 页">
    <mxGraphModel dx="1147" dy="710" grid="1" gridSize="10" guides="1" tooltips="1" connect="1" arrows="1" fold="1" page="1" pageScale="1" pageWidth="1169" pageHeight="827" background="#ffffff" math="1" shadow="0">
      <root>
        <mxCell id="0" />
        <mxCell id="1" parent="0" />
        <mxCell id="mQzAU8ioXe-na9pJHeP9-78" value="" style="rounded=1;whiteSpace=wrap;html=1;dashed=1;strokeWidth=2;fillColor=none;strokeColor=#00188d;fontColor=#00188d;dashPattern=8 8;" vertex="1" parent="1">
          <mxGeometry x="120" y="160" width="78" height="80" as="geometry" />
        </mxCell>
        <mxCell id="mQzAU8ioXe-na9pJHeP9-79" value="" style="endArrow=none;html=1;rounded=1;endFill=0;strokeColor=#00188d;strokeWidth=2;exitX=0.618;exitY=-0.01;exitDx=0;exitDy=0;exitPerimeter=0;" edge="1" parent="1" source="mQzAU8ioXe-na9pJHeP9-78">
          <mxGeometry width="50" height="50" relative="1" as="geometry">
            <mxPoint x="170" y="150" as="sourcePoint" />
            <mxPoint x="286" y="66" as="targetPoint" />
            <Array as="points">
              <mxPoint x="168" y="66" />
            </Array>
          </mxGeometry>
        </mxCell>
        <mxCell id="mQzAU8ioXe-na9pJHeP9-67" value="" style="endArrow=none;html=1;rounded=1;endFill=0;strokeColor=#00bef2;strokeWidth=2;entryX=0;entryY=0.5;entryDx=0;entryDy=0;exitX=0.3;exitY=1;exitDx=0;exitDy=0;exitPerimeter=0;" edge="1" parent="1" source="mQzAU8ioXe-na9pJHeP9-14" target="mQzAU8ioXe-na9pJHeP9-63">
          <mxGeometry width="50" height="50" relative="1" as="geometry">
            <mxPoint x="266" y="240" as="sourcePoint" />
            <mxPoint x="340" y="650" as="targetPoint" />
            <Array as="points">
              <mxPoint x="270" y="680" />
            </Array>
          </mxGeometry>
        </mxCell>
        <mxCell id="mQzAU8ioXe-na9pJHeP9-44" value="" style="rounded=1;whiteSpace=wrap;html=1;dashed=1;strokeWidth=2;fillColor=none;strokeColor=#748ab6;perimeterSpacing=0;glass=0;shadow=0;dashPattern=8 8;" vertex="1" parent="1">
          <mxGeometry x="682" y="160" width="280" height="80" as="geometry" />
        </mxCell>
        <mxCell id="ZmY6_l6aeNrQox6_WoO2-1" value="" style="rounded=1;whiteSpace=wrap;html=1;dashed=1;strokeWidth=2;fillColor=none;strokeColor=#00188d;perimeterSpacing=0;glass=0;shadow=0;dashPattern=8 8;" parent="1" vertex="1">
          <mxGeometry x="362" y="160" width="280" height="80" as="geometry" />
        </mxCell>
        <mxCell id="mQzAU8ioXe-na9pJHeP9-7" value="" style="endArrow=none;html=1;rounded=1;strokeWidth=2;strokeColor=#00188d;" parent="1" edge="1" target="mQzAU8ioXe-na9pJHeP9-4">
          <mxGeometry width="50" height="50" relative="1" as="geometry">
            <mxPoint x="272" y="64.66" as="sourcePoint" />
            <mxPoint x="402" y="65" as="targetPoint" />
          </mxGeometry>
        </mxCell>
        <mxCell id="mQzAU8ioXe-na9pJHeP9-10" value="" style="endArrow=none;html=1;rounded=1;endFill=0;strokeColor=#00188d;exitX=0.148;exitY=-0.015;exitDx=0;exitDy=0;exitPerimeter=0;strokeWidth=2;entryX=0.6;entryY=0.841;entryDx=0;entryDy=0;entryPerimeter=0;" parent="1" edge="1" target="mQzAU8ioXe-na9pJHeP9-4">
          <mxGeometry width="50" height="50" relative="1" as="geometry">
            <mxPoint x="406.44000000000005" y="158.79999999999995" as="sourcePoint" />
            <mxPoint x="538" y="66" as="targetPoint" />
            <Array as="points">
              <mxPoint x="406" y="120" />
              <mxPoint x="552" y="120" />
            </Array>
          </mxGeometry>
        </mxCell>
        <mxCell id="mQzAU8ioXe-na9pJHeP9-4" value="" style="image;sketch=0;aspect=fixed;html=1;points=[];align=center;fontSize=12;image=img/lib/mscae/Front_Doors.svg;" parent="1" vertex="1">
          <mxGeometry x="522" y="43" width="50" height="44" as="geometry" />
        </mxCell>
        <mxCell id="mQzAU8ioXe-na9pJHeP9-11" value="" style="endArrow=none;html=1;rounded=1;strokeWidth=2;exitX=0.258;exitY=0;exitDx=0;exitDy=0;exitPerimeter=0;strokeColor=#00188d;" parent="1" edge="1">
          <mxGeometry width="50" height="50" relative="1" as="geometry">
            <mxPoint x="268" y="160" as="sourcePoint" />
            <mxPoint x="268" y="87" as="targetPoint" />
            <Array as="points" />
          </mxGeometry>
        </mxCell>
        <mxCell id="mQzAU8ioXe-na9pJHeP9-3" value="" style="image;sketch=0;aspect=fixed;html=1;points=[];align=center;fontSize=12;image=img/lib/mscae/App_Services.svg;" parent="1" vertex="1">
          <mxGeometry x="242" y="40" width="50" height="50" as="geometry" />
        </mxCell>
        <mxCell id="mQzAU8ioXe-na9pJHeP9-12" value="" style="shadow=0;dashed=0;html=1;strokeColor=none;fillColor=#4495D1;labelPosition=center;verticalLabelPosition=bottom;verticalAlign=top;align=center;outlineConnect=0;shape=mxgraph.veeam.vpn;" parent="1" vertex="1">
          <mxGeometry x="240" y="360" width="54" height="38" as="geometry" />
        </mxCell>
        <mxCell id="mQzAU8ioXe-na9pJHeP9-14" value="" style="rounded=1;whiteSpace=wrap;html=1;dashed=1;strokeWidth=2;fillColor=none;strokeColor=#00188d;fontColor=#00188d;dashPattern=8 8;" parent="1" vertex="1">
          <mxGeometry x="246" y="160" width="80" height="80" as="geometry" />
        </mxCell>
        <mxCell id="mQzAU8ioXe-na9pJHeP9-17" value="rs-laptop" style="sketch=0;aspect=fixed;pointerEvents=1;shadow=0;dashed=0;strokeColor=none;labelPosition=center;verticalLabelPosition=bottom;verticalAlign=top;align=center;fillColor=#00188D;shape=mxgraph.azure.laptop;fontStyle=1;html=1;fontSize=11;fontColor=#00188d;" parent="1" vertex="1">
          <mxGeometry x="261" y="180" width="50" height="30" as="geometry" />
        </mxCell>
        <mxCell id="mQzAU8ioXe-na9pJHeP9-18" value="&lt;font style=&quot;font-size: 11px;&quot;&gt;iTran&lt;/font&gt;" style="rounded=1;whiteSpace=wrap;html=1;fontSize=11;strokeColor=none;fillColor=none;fontColor=#00188d;align=right;" parent="1" vertex="1">
          <mxGeometry x="286" y="140" width="40" height="20" as="geometry" />
        </mxCell>
        <mxCell id="mQzAU8ioXe-na9pJHeP9-19" value="&lt;font style=&quot;font-size: 11px;&quot;&gt;&lt;span style=&quot;font-weight: normal;&quot;&gt;ISP&lt;/span&gt;&lt;br&gt;100.64.0.1&lt;/font&gt;" style="text;align=left;verticalAlign=middle;resizable=0;points=[];autosize=1;strokeColor=none;fillColor=none;fontSize=12;fontStyle=1;html=1;fontColor=#0072c6;" parent="1" vertex="1">
          <mxGeometry x="577" y="45" width="80" height="40" as="geometry" />
        </mxCell>
        <mxCell id="mQzAU8ioXe-na9pJHeP9-22" value="" style="group" parent="1" vertex="1" connectable="0">
          <mxGeometry x="385" y="180" width="240" height="40" as="geometry" />
        </mxCell>
        <mxCell id="mQzAU8ioXe-na9pJHeP9-20" value="&lt;p style=&quot;line-height: 90%;&quot;&gt;&lt;span style=&quot;orphans: 2; text-align: left; text-indent: 0px; widows: 2; background-color: rgb(251, 251, 251); text-decoration-thickness: initial; text-decoration-style: initial; text-decoration-color: initial; float: none; display: inline !important; -webkit-text-stroke-width: 0px; word-spacing: 0px; text-transform: none; letter-spacing: normal; font-variant-caps: normal; font-variant-ligatures: normal; font-style: normal; font-size: 11px; font-family: Helvetica;&quot;&gt;ISP Fiber Router (Wi-Fi Disabled)&lt;br&gt;&lt;span style=&quot;font-size: 11px;&quot;&gt;Huawei OptiXstar HN8145XR&lt;/span&gt;&lt;br&gt;&lt;b style=&quot;font-family: Helvetica; font-size: 11px; font-style: normal; font-variant-ligatures: normal; font-variant-caps: normal; letter-spacing: normal; text-transform: none; word-spacing: 0px; -webkit-text-stroke-width: 0px;&quot;&gt;192.168.1.1&lt;/b&gt;&lt;br&gt;&lt;/span&gt;&lt;/p&gt;" style="text;whiteSpace=wrap;html=1;fontSize=16;fontColor=#00188d;verticalAlign=middle;" parent="mQzAU8ioXe-na9pJHeP9-22" vertex="1">
          <mxGeometry x="70" width="170.00000000000003" height="40" as="geometry" />
        </mxCell>
        <mxCell id="mQzAU8ioXe-na9pJHeP9-21" value="" style="sketch=0;aspect=fixed;pointerEvents=1;shadow=0;dashed=0;html=1;strokeColor=none;labelPosition=center;verticalLabelPosition=bottom;verticalAlign=top;align=center;fillColor=#00188D;shape=mxgraph.mscae.enterprise.router;fontSize=16;" parent="mQzAU8ioXe-na9pJHeP9-22" vertex="1">
          <mxGeometry y="1.31" width="47.91666666666667" height="37.375" as="geometry" />
        </mxCell>
        <mxCell id="mQzAU8ioXe-na9pJHeP9-24" value="" style="rounded=1;whiteSpace=wrap;html=1;fontSize=16;fillColor=none;strokeWidth=2;dashed=1;perimeterSpacing=0;strokeColor=#CC6600;dashPattern=8 8;" parent="1" vertex="1">
          <mxGeometry x="362" y="280" width="280" height="80" as="geometry" />
        </mxCell>
        <mxCell id="mQzAU8ioXe-na9pJHeP9-25" value="" style="endArrow=none;html=1;rounded=1;fontSize=12;startSize=8;endSize=8;entryX=0.139;entryY=1.01;entryDx=0;entryDy=0;entryPerimeter=0;strokeColor=#CC6600;" parent="1" edge="1">
          <mxGeometry width="50" height="50" relative="1" as="geometry">
            <mxPoint x="406" y="280" as="sourcePoint" />
            <mxPoint x="405.9200000000001" y="240.79999999999995" as="targetPoint" />
          </mxGeometry>
        </mxCell>
        <mxCell id="mQzAU8ioXe-na9pJHeP9-27" value="" style="sketch=0;aspect=fixed;pointerEvents=1;shadow=0;dashed=0;html=1;strokeColor=none;labelPosition=center;verticalLabelPosition=bottom;verticalAlign=top;align=center;fillColor=#CC6600;shape=mxgraph.mscae.enterprise.router;fontSize=16;" parent="1" vertex="1">
          <mxGeometry x="385" y="301.31" width="47.91666666666667" height="37.375" as="geometry" />
        </mxCell>
        <mxCell id="mQzAU8ioXe-na9pJHeP9-29" value="&lt;p style=&quot;line-height: 90%;&quot;&gt;&lt;span style=&quot;orphans: 2; text-align: left; text-indent: 0px; widows: 2; background-color: rgb(251, 251, 251); text-decoration-thickness: initial; text-decoration-style: initial; text-decoration-color: initial; float: none; display: inline !important; -webkit-text-stroke-width: 0px; word-spacing: 0px; text-transform: none; letter-spacing: normal; font-variant-caps: normal; font-variant-ligatures: normal; font-style: normal; font-size: 11px; font-family: Helvetica;&quot;&gt;Main Router&lt;br&gt;TP-Link TL-XDR3230&lt;br&gt;&lt;b style=&quot;font-family: Helvetica; font-size: 11px; font-style: normal; font-variant-ligatures: normal; font-variant-caps: normal; letter-spacing: normal; text-transform: none; word-spacing: 0px; -webkit-text-stroke-width: 0px;&quot;&gt;192.168.0.1&lt;/b&gt;&lt;br&gt;&lt;/span&gt;&lt;/p&gt;" style="text;whiteSpace=wrap;html=1;fontSize=16;fontColor=#CC6600;verticalAlign=middle;fillColor=none;" parent="1" vertex="1">
          <mxGeometry x="455" y="300" width="170.00000000000003" height="40" as="geometry" />
        </mxCell>
        <mxCell id="mQzAU8ioXe-na9pJHeP9-26" value="" style="rounded=1;whiteSpace=wrap;html=1;fontSize=16;fillColor=none;strokeWidth=2;dashed=1;perimeterSpacing=0;strokeColor=#CC6600;dashPattern=8 8;" vertex="1" parent="1">
          <mxGeometry x="362" y="400" width="280" height="80" as="geometry" />
        </mxCell>
        <mxCell id="mQzAU8ioXe-na9pJHeP9-28" value="" style="sketch=0;aspect=fixed;pointerEvents=1;shadow=0;dashed=0;html=1;strokeColor=none;labelPosition=center;verticalLabelPosition=bottom;verticalAlign=top;align=center;fillColor=#CC6600;shape=mxgraph.mscae.enterprise.router;fontSize=16;" vertex="1" parent="1">
          <mxGeometry x="383.03999999999996" y="421.31" width="47.91666666666667" height="37.375" as="geometry" />
        </mxCell>
        <mxCell id="mQzAU8ioXe-na9pJHeP9-30" value="&lt;p style=&quot;line-height: 90%;&quot;&gt;&lt;span style=&quot;orphans: 2; text-align: left; text-indent: 0px; widows: 2; background-color: rgb(251, 251, 251); text-decoration-thickness: initial; text-decoration-style: initial; text-decoration-color: initial; float: none; display: inline !important; -webkit-text-stroke-width: 0px; word-spacing: 0px; text-transform: none; letter-spacing: normal; font-variant-caps: normal; font-variant-ligatures: normal; font-style: normal; font-size: 11px; font-family: Helvetica;&quot;&gt;Child Router&lt;br&gt;TP-Link TL-XDR1850&lt;br&gt;&lt;b style=&quot;font-family: Helvetica; font-size: 11px; font-style: normal; font-variant-ligatures: normal; font-variant-caps: normal; letter-spacing: normal; text-transform: none; word-spacing: 0px; -webkit-text-stroke-width: 0px;&quot;&gt;192.168.0.2&lt;/b&gt;&lt;br&gt;&lt;/span&gt;&lt;/p&gt;" style="text;whiteSpace=wrap;html=1;fontSize=16;fontColor=#CC6600;verticalAlign=middle;fillColor=none;" vertex="1" parent="1">
          <mxGeometry x="455" y="418.68" width="170.00000000000003" height="40" as="geometry" />
        </mxCell>
        <mxCell id="mQzAU8ioXe-na9pJHeP9-31" value="" style="rounded=1;whiteSpace=wrap;html=1;fontSize=16;fillColor=none;strokeWidth=2;dashed=1;perimeterSpacing=0;strokeColor=#CC6600;dashPattern=8 8;" vertex="1" parent="1">
          <mxGeometry x="682" y="280" width="280" height="80" as="geometry" />
        </mxCell>
        <mxCell id="mQzAU8ioXe-na9pJHeP9-32" value="" style="sketch=0;aspect=fixed;pointerEvents=1;shadow=0;dashed=0;html=1;strokeColor=none;labelPosition=center;verticalLabelPosition=bottom;verticalAlign=top;align=center;fillColor=#CC6600;shape=mxgraph.mscae.enterprise.router;fontSize=16;" vertex="1" parent="1">
          <mxGeometry x="703.04" y="301.30999999999995" width="47.91666666666667" height="37.375" as="geometry" />
        </mxCell>
        <mxCell id="mQzAU8ioXe-na9pJHeP9-33" value="&lt;p style=&quot;line-height: 90%;&quot;&gt;&lt;span style=&quot;orphans: 2; text-align: left; text-indent: 0px; widows: 2; background-color: rgb(251, 251, 251); text-decoration-thickness: initial; text-decoration-style: initial; text-decoration-color: initial; float: none; display: inline !important; -webkit-text-stroke-width: 0px; word-spacing: 0px; text-transform: none; letter-spacing: normal; font-variant-caps: normal; font-variant-ligatures: normal; font-style: normal; font-size: 11px; font-family: Helvetica;&quot;&gt;Child Router&lt;br&gt;TP-Link TL-XDR1850&lt;br&gt;&lt;b style=&quot;font-family: Helvetica; font-size: 11px; font-style: normal; font-variant-ligatures: normal; font-variant-caps: normal; letter-spacing: normal; text-transform: none; word-spacing: 0px; -webkit-text-stroke-width: 0px;&quot;&gt;192.168.0.3&lt;/b&gt;&lt;br&gt;&lt;/span&gt;&lt;/p&gt;" style="text;whiteSpace=wrap;html=1;fontSize=16;fontColor=#CC6600;verticalAlign=middle;fillColor=none;" vertex="1" parent="1">
          <mxGeometry x="775" y="298.68000000000006" width="170.00000000000003" height="40" as="geometry" />
        </mxCell>
        <mxCell id="mQzAU8ioXe-na9pJHeP9-34" value="" style="rounded=1;whiteSpace=wrap;html=1;fontSize=16;fillColor=none;strokeWidth=2;dashed=1;perimeterSpacing=0;strokeColor=#CC6600;dashPattern=8 8;" vertex="1" parent="1">
          <mxGeometry x="682" y="400" width="280" height="80" as="geometry" />
        </mxCell>
        <mxCell id="mQzAU8ioXe-na9pJHeP9-35" value="" style="sketch=0;aspect=fixed;pointerEvents=1;shadow=0;dashed=0;html=1;strokeColor=none;labelPosition=center;verticalLabelPosition=bottom;verticalAlign=top;align=center;fillColor=#CC6600;shape=mxgraph.mscae.enterprise.router;fontSize=16;" vertex="1" parent="1">
          <mxGeometry x="703.04" y="421.31" width="47.91666666666667" height="37.375" as="geometry" />
        </mxCell>
        <mxCell id="mQzAU8ioXe-na9pJHeP9-36" value="&lt;p style=&quot;line-height: 90%;&quot;&gt;&lt;span style=&quot;orphans: 2; text-align: left; text-indent: 0px; widows: 2; background-color: rgb(251, 251, 251); text-decoration-thickness: initial; text-decoration-style: initial; text-decoration-color: initial; float: none; display: inline !important; -webkit-text-stroke-width: 0px; word-spacing: 0px; text-transform: none; letter-spacing: normal; font-variant-caps: normal; font-variant-ligatures: normal; font-style: normal; font-size: 11px; font-family: Helvetica;&quot;&gt;Child Router&lt;br&gt;TP-Link TL-XDR3060&lt;br&gt;&lt;b style=&quot;font-family: Helvetica; font-size: 11px; font-style: normal; font-variant-ligatures: normal; font-variant-caps: normal; letter-spacing: normal; text-transform: none; word-spacing: 0px; -webkit-text-stroke-width: 0px;&quot;&gt;192.168.0.4&lt;/b&gt;&lt;br&gt;&lt;/span&gt;&lt;/p&gt;" style="text;whiteSpace=wrap;html=1;fontSize=16;fontColor=#CC6600;verticalAlign=middle;fillColor=none;" vertex="1" parent="1">
          <mxGeometry x="775" y="418.68" width="170.00000000000003" height="40" as="geometry" />
        </mxCell>
        <mxCell id="mQzAU8ioXe-na9pJHeP9-38" value="" style="endArrow=none;html=1;rounded=1;fontSize=12;startSize=8;endSize=8;entryX=0.139;entryY=1.01;entryDx=0;entryDy=0;entryPerimeter=0;strokeColor=#CC6600;" edge="1" parent="1">
          <mxGeometry width="50" height="50" relative="1" as="geometry">
            <mxPoint x="405.68" y="400" as="sourcePoint" />
            <mxPoint x="405.6000000000001" y="360.79999999999995" as="targetPoint" />
          </mxGeometry>
        </mxCell>
        <mxCell id="mQzAU8ioXe-na9pJHeP9-40" value="" style="endArrow=none;html=1;rounded=0;fontSize=12;startSize=8;endSize=8;curved=1;entryX=1;entryY=0.5;entryDx=0;entryDy=0;strokeColor=#CC6600;exitX=0;exitY=0.5;exitDx=0;exitDy=0;" edge="1" parent="1" source="mQzAU8ioXe-na9pJHeP9-34" target="mQzAU8ioXe-na9pJHeP9-26">
          <mxGeometry width="50" height="50" relative="1" as="geometry">
            <mxPoint x="787.0799999999999" y="310" as="sourcePoint" />
            <mxPoint x="787" y="270.79999999999995" as="targetPoint" />
          </mxGeometry>
        </mxCell>
        <mxCell id="mQzAU8ioXe-na9pJHeP9-43" value="" style="fontColor=#0066CC;verticalAlign=top;verticalLabelPosition=bottom;labelPosition=center;align=center;html=1;outlineConnect=0;fillColor=#CCCCCC;strokeColor=#6881B3;gradientColor=none;gradientDirection=north;strokeWidth=2;shape=mxgraph.networks.security_camera;fontSize=16;aspect=fixed;" vertex="1" parent="1">
          <mxGeometry x="706.99" y="185" width="40.01" height="30" as="geometry" />
        </mxCell>
        <mxCell id="mQzAU8ioXe-na9pJHeP9-49" value="" style="sketch=0;aspect=fixed;pointerEvents=1;shadow=0;dashed=0;html=1;strokeColor=none;labelPosition=center;verticalLabelPosition=bottom;verticalAlign=top;align=center;fillColor=#00188D;shape=mxgraph.mscae.enterprise.wireless_connection;fontSize=16;" vertex="1" parent="1">
          <mxGeometry x="686.24" y="165" width="16.8" height="20" as="geometry" />
        </mxCell>
        <mxCell id="mQzAU8ioXe-na9pJHeP9-51" value="Tailscale" style="text;html=1;align=left;verticalAlign=middle;resizable=0;points=[];autosize=1;strokeColor=none;fillColor=none;fontSize=11;fontColor=#4495d1;" vertex="1" parent="1">
          <mxGeometry x="296" y="364" width="70" height="30" as="geometry" />
        </mxCell>
        <mxCell id="mQzAU8ioXe-na9pJHeP9-57" value="&lt;div style=&quot;&quot;&gt;&lt;span style=&quot;font-weight: normal; font-size: 11px; background-color: initial;&quot;&gt;Security Cameras&lt;/span&gt;&lt;/div&gt;&lt;font style=&quot;font-size: 11px;&quot;&gt;&lt;div style=&quot;&quot;&gt;&lt;span style=&quot;background-color: initial;&quot;&gt;192.168.0.20&lt;/span&gt;&lt;span style=&quot;background-color: initial; font-weight: normal;&quot;&gt; ... &lt;/span&gt;&lt;span style=&quot;background-color: initial;&quot;&gt;192.168.0.29&lt;/span&gt;&lt;/div&gt;&lt;/font&gt;" style="text;html=1;align=left;verticalAlign=middle;resizable=0;points=[];autosize=1;strokeColor=none;fillColor=none;fontSize=16;fontColor=#748ab6;fontStyle=1" vertex="1" parent="1">
          <mxGeometry x="775" y="175" width="170" height="50" as="geometry" />
        </mxCell>
        <mxCell id="mQzAU8ioXe-na9pJHeP9-63" value="" style="rounded=1;whiteSpace=wrap;html=1;fontSize=16;fillColor=none;strokeWidth=2;dashed=1;perimeterSpacing=0;strokeColor=#00bef2;dashPattern=8 8;" vertex="1" parent="1">
          <mxGeometry x="362" y="640" width="280" height="80" as="geometry" />
        </mxCell>
        <mxCell id="mQzAU8ioXe-na9pJHeP9-65" value="" style="verticalLabelPosition=bottom;html=1;verticalAlign=top;align=center;strokeColor=none;fillColor=#00BEF2;shape=mxgraph.azure.server;fontSize=16;" vertex="1" parent="1">
          <mxGeometry x="383.03999999999996" y="672.5" width="50" height="15" as="geometry" />
        </mxCell>
        <mxCell id="mQzAU8ioXe-na9pJHeP9-68" value="&lt;p style=&quot;line-height: 90%;&quot;&gt;&lt;span style=&quot;orphans: 2; text-align: left; text-indent: 0px; widows: 2; background-color: rgb(251, 251, 251); text-decoration-thickness: initial; text-decoration-style: initial; text-decoration-color: initial; float: none; display: inline !important; -webkit-text-stroke-width: 0px; word-spacing: 0px; text-transform: none; letter-spacing: normal; font-variant-caps: normal; font-variant-ligatures: normal; font-style: normal; font-size: 11px; font-family: Helvetica;&quot;&gt;NAS&lt;br&gt;&lt;span style=&quot;font-family: Helvetica; font-size: 11px; font-style: normal; font-variant-ligatures: normal; font-variant-caps: normal; letter-spacing: normal; text-transform: none; word-spacing: 0px; -webkit-text-stroke-width: 0px;&quot;&gt;Windows Server&lt;br&gt;&lt;/span&gt;&lt;/span&gt;&lt;b style=&quot;font-size: 11px;&quot;&gt;192.168.0.120&lt;/b&gt;&lt;span style=&quot;font-size: 11px;&quot;&gt;&amp;nbsp;...&amp;nbsp;&lt;/span&gt;&lt;b style=&quot;font-size: 11px;&quot;&gt;192.168.0.122&lt;/b&gt;&lt;/p&gt;" style="text;whiteSpace=wrap;html=1;fontSize=16;fontColor=#00bef2;verticalAlign=middle;fillColor=none;" vertex="1" parent="1">
          <mxGeometry x="455" y="660" width="170" height="40" as="geometry" />
        </mxCell>
        <mxCell id="mQzAU8ioXe-na9pJHeP9-72" value="" style="rounded=1;whiteSpace=wrap;html=1;fontSize=16;fillColor=none;strokeWidth=2;dashed=1;perimeterSpacing=0;strokeColor=#00bef2;dashPattern=8 8;" vertex="1" parent="1">
          <mxGeometry x="362" y="520" width="280" height="80" as="geometry" />
        </mxCell>
        <mxCell id="mQzAU8ioXe-na9pJHeP9-73" value="" style="verticalLabelPosition=bottom;html=1;verticalAlign=top;align=center;strokeColor=none;fillColor=#00BEF2;shape=mxgraph.azure.server;fontSize=16;" vertex="1" parent="1">
          <mxGeometry x="383.03999999999996" y="552.5" width="50" height="15" as="geometry" />
        </mxCell>
        <mxCell id="mQzAU8ioXe-na9pJHeP9-74" value="&lt;p style=&quot;line-height: 90%;&quot;&gt;&lt;span style=&quot;orphans: 2; text-align: left; text-indent: 0px; widows: 2; background-color: rgb(251, 251, 251); text-decoration-thickness: initial; text-decoration-style: initial; text-decoration-color: initial; float: none; display: inline !important; -webkit-text-stroke-width: 0px; word-spacing: 0px; text-transform: none; letter-spacing: normal; font-variant-caps: normal; font-variant-ligatures: normal; font-style: normal; font-size: 11px; font-family: Helvetica;&quot;&gt;DNS Server (Adguard Home)&lt;br&gt;&lt;span style=&quot;font-family: Helvetica; font-size: 11px; font-style: normal; font-variant-ligatures: normal; font-variant-caps: normal; letter-spacing: normal; text-transform: none; word-spacing: 0px; -webkit-text-stroke-width: 0px;&quot;&gt;Raspbe&lt;/span&gt;&lt;/span&gt;&lt;span style=&quot;font-size: 11px;&quot;&gt;rry Pi 4B&lt;br&gt;&lt;/span&gt;&lt;b style=&quot;background-color: initial; font-size: 11px;&quot;&gt;192.168.0.119&lt;/b&gt;&lt;/p&gt;" style="text;whiteSpace=wrap;html=1;fontSize=16;fontColor=#00bef2;verticalAlign=middle;fillColor=none;" vertex="1" parent="1">
          <mxGeometry x="455" y="540" width="170" height="40" as="geometry" />
        </mxCell>
        <mxCell id="mQzAU8ioXe-na9pJHeP9-75" value="" style="endArrow=none;html=1;rounded=1;fontSize=12;startSize=8;endSize=8;fontColor=#00bef2;strokeColor=#4495d1;strokeWidth=2;exitX=0;exitY=0.5;exitDx=0;exitDy=0;" edge="1" parent="1" source="mQzAU8ioXe-na9pJHeP9-72">
          <mxGeometry width="50" height="50" relative="1" as="geometry">
            <mxPoint x="799" y="559.6" as="sourcePoint" />
            <mxPoint x="270" y="560" as="targetPoint" />
          </mxGeometry>
        </mxCell>
        <mxCell id="mQzAU8ioXe-na9pJHeP9-76" value="&lt;font style=&quot;font-size: 11px;&quot;&gt;47.243.194.29&lt;/font&gt;" style="sketch=0;aspect=fixed;pointerEvents=1;shadow=0;dashed=0;strokeColor=none;labelPosition=center;verticalLabelPosition=bottom;verticalAlign=top;align=center;fillColor=#00188D;shape=mxgraph.mscae.enterprise.web_server;fontSize=11;fontColor=#00188d;html=1;fontStyle=1" vertex="1" parent="1">
          <mxGeometry x="144.75" y="172.5" width="28.5" height="37.5" as="geometry" />
        </mxCell>
      </root>
    </mxGraphModel>
  </diagram>
</mxfile>
